# xmcd
#
# Track frame offsets: 
#        150
#        10204
#        21204
#        35264
#        46356
#        57955
#
# Disc length: 955 seconds
#
# Revision: 1
# Processed by: cddbd v1.4PL0 Copyright (c) Steve Scherf et al.
# Submitted via: ExactAudioCopy v0.90b4
#
DISCID=4203b906
DTITLE=Vern Gosdin - Six Track Pack
DYEAR=1900
DGENRE=Country
TTITLE0=Damn The Fever
TTITLE1=Too Far Gone To Find
TTITLE2=Friday Night Feeling
TTITLE3=Your Bedroom Eyes
TTITLE4=When Love Was All We Had To Share
TTITLE5=Rough Around The Edges
EXTD=
EXTT0=
EXTT1=
EXTT2=
EXTT3=
EXTT4=
EXTT5=
PLAYORDER=
